<mxfile host="65bd71144e">
    <diagram id="6rzt2TXuob4xhtXyaZt5" name="main">
        <mxGraphModel dx="969" dy="347" grid="1" gridSize="10" guides="1" tooltips="1" connect="1" arrows="1" fold="1" page="1" pageScale="1" pageWidth="850" pageHeight="1100" math="0" shadow="0">
            <root>
                <mxCell id="0"/>
                <mxCell id="1" parent="0"/>
                <mxCell id="4" value="" style="edgeStyle=none;html=1;" parent="1" source="2" target="3" edge="1">
                    <mxGeometry relative="1" as="geometry"/>
                </mxCell>
                <mxCell id="2" value="start" style="ellipse;whiteSpace=wrap;html=1;" parent="1" vertex="1">
                    <mxGeometry x="80" y="57.5" width="60" height="30" as="geometry"/>
                </mxCell>
                <mxCell id="6" value="" style="edgeStyle=none;html=1;entryX=0;entryY=0.5;entryDx=0;entryDy=0;" parent="1" source="3" target="63-pltJuSpFZ5HcEPU_--11" edge="1">
                    <mxGeometry relative="1" as="geometry"/>
                </mxCell>
                <mxCell id="3" value="n = (read # of nodes)&lt;br&gt;m = (read # of pho)&lt;br&gt;vector&amp;lt;int&amp;gt; adjL[n]&lt;br&gt;bool isPho[n]&lt;br&gt;i = 0&lt;br&gt;j = 0" style="rounded=1;whiteSpace=wrap;html=1;" parent="1" vertex="1">
                    <mxGeometry x="180" y="25" width="220" height="95" as="geometry"/>
                </mxCell>
                <mxCell id="8" value="" style="edgeStyle=none;html=1;" parent="1" source="5" target="7" edge="1">
                    <mxGeometry relative="1" as="geometry"/>
                </mxCell>
                <UserObject label="d = &lt;a href=&quot;data:page/id,jtwWwJaHlfj50oAzaOnL&quot;&gt;calculateDiameter()&lt;/a&gt;&lt;br&gt;int numPho = accumulate(isPho, isPho + n, 0)" id="5">
                    <mxCell style="rounded=1;whiteSpace=wrap;html=1;" parent="1" vertex="1">
                        <mxGeometry x="388.13" y="320" width="283.75" height="50" as="geometry"/>
                    </mxCell>
                </UserObject>
                <mxCell id="10" value="" style="edgeStyle=none;html=1;" parent="1" source="7" target="9" edge="1">
                    <mxGeometry relative="1" as="geometry"/>
                </mxCell>
                <mxCell id="7" value="int shortestSpanningPath = 2*(numPho - 1) - d&lt;br&gt;print shortestSpanningPath" style="rounded=1;whiteSpace=wrap;html=1;" parent="1" vertex="1">
                    <mxGeometry x="363.75" y="390" width="332.5" height="40" as="geometry"/>
                </mxCell>
                <mxCell id="9" value="end" style="ellipse;whiteSpace=wrap;html=1;" parent="1" vertex="1">
                    <mxGeometry x="500" y="460" width="60" height="30" as="geometry"/>
                </mxCell>
                <mxCell id="63-pltJuSpFZ5HcEPU_--17" value="" style="edgeStyle=none;html=1;" parent="1" source="63-pltJuSpFZ5HcEPU_--11" target="63-pltJuSpFZ5HcEPU_--16" edge="1">
                    <mxGeometry relative="1" as="geometry"/>
                </mxCell>
                <mxCell id="63-pltJuSpFZ5HcEPU_--11" value="cur = (read cur node)&lt;br&gt;isPho[cur] = true&lt;br&gt;i++" style="rounded=1;whiteSpace=wrap;html=1;" parent="1" vertex="1">
                    <mxGeometry x="460" y="47.5" width="140" height="50" as="geometry"/>
                </mxCell>
                <mxCell id="63-pltJuSpFZ5HcEPU_--22" value="" style="edgeStyle=none;html=1;" parent="1" source="63-pltJuSpFZ5HcEPU_--13" target="63-pltJuSpFZ5HcEPU_--21" edge="1">
                    <mxGeometry relative="1" as="geometry"/>
                </mxCell>
                <mxCell id="63-pltJuSpFZ5HcEPU_--13" value="read n1, n2&lt;br&gt;adjL[n1].push_back(n2)&lt;br&gt;adjL[n2].push_back(n1)&lt;br&gt;j++" style="rounded=1;whiteSpace=wrap;html=1;" parent="1" vertex="1">
                    <mxGeometry x="460" y="180" width="140" height="60" as="geometry"/>
                </mxCell>
                <mxCell id="63-pltJuSpFZ5HcEPU_--18" value="Y" style="edgeStyle=none;html=1;exitX=1;exitY=0.5;exitDx=0;exitDy=0;entryX=1;entryY=0.5;entryDx=0;entryDy=0;" parent="1" source="63-pltJuSpFZ5HcEPU_--16" target="63-pltJuSpFZ5HcEPU_--11" edge="1">
                    <mxGeometry relative="1" as="geometry">
                        <Array as="points">
                            <mxPoint x="650" y="100"/>
                        </Array>
                    </mxGeometry>
                </mxCell>
                <mxCell id="63-pltJuSpFZ5HcEPU_--20" value="N" style="edgeStyle=none;html=1;" parent="1" source="63-pltJuSpFZ5HcEPU_--16" target="63-pltJuSpFZ5HcEPU_--13" edge="1">
                    <mxGeometry relative="1" as="geometry"/>
                </mxCell>
                <mxCell id="63-pltJuSpFZ5HcEPU_--16" value="i &amp;lt; m" style="rhombus;whiteSpace=wrap;html=1;rounded=1;" parent="1" vertex="1">
                    <mxGeometry x="495" y="120" width="70" height="30" as="geometry"/>
                </mxCell>
                <mxCell id="63-pltJuSpFZ5HcEPU_--23" value="Y" style="edgeStyle=none;html=1;exitX=1;exitY=0.5;exitDx=0;exitDy=0;entryX=1;entryY=0.5;entryDx=0;entryDy=0;" parent="1" source="63-pltJuSpFZ5HcEPU_--21" target="63-pltJuSpFZ5HcEPU_--13" edge="1">
                    <mxGeometry relative="1" as="geometry">
                        <Array as="points">
                            <mxPoint x="640" y="250"/>
                        </Array>
                    </mxGeometry>
                </mxCell>
                <mxCell id="63-pltJuSpFZ5HcEPU_--26" value="N" style="edgeStyle=none;html=1;exitX=0.5;exitY=1;exitDx=0;exitDy=0;entryX=0.5;entryY=0;entryDx=0;entryDy=0;" parent="1" source="63-pltJuSpFZ5HcEPU_--21" target="5" edge="1">
                    <mxGeometry relative="1" as="geometry"/>
                </mxCell>
                <mxCell id="63-pltJuSpFZ5HcEPU_--21" value="j &amp;lt; n" style="rhombus;whiteSpace=wrap;html=1;rounded=1;" parent="1" vertex="1">
                    <mxGeometry x="495" y="260" width="70" height="30" as="geometry"/>
                </mxCell>
            </root>
        </mxGraphModel>
    </diagram>
    <diagram name="Copy of main" id="vBStlzH9kYgX9EPwoTds">
        <mxGraphModel dx="969" dy="347" grid="1" gridSize="10" guides="1" tooltips="1" connect="1" arrows="1" fold="1" page="1" pageScale="1" pageWidth="850" pageHeight="1100" math="0" shadow="0">
            <root>
                <mxCell id="-E1K7-kW_m8oGpAvoMYj-0"/>
                <mxCell id="-E1K7-kW_m8oGpAvoMYj-1" parent="-E1K7-kW_m8oGpAvoMYj-0"/>
                <mxCell id="-E1K7-kW_m8oGpAvoMYj-2" value="" style="edgeStyle=none;html=1;" edge="1" parent="-E1K7-kW_m8oGpAvoMYj-1" source="-E1K7-kW_m8oGpAvoMYj-3" target="-E1K7-kW_m8oGpAvoMYj-5">
                    <mxGeometry relative="1" as="geometry"/>
                </mxCell>
                <mxCell id="-E1K7-kW_m8oGpAvoMYj-3" value="start" style="ellipse;whiteSpace=wrap;html=1;" vertex="1" parent="-E1K7-kW_m8oGpAvoMYj-1">
                    <mxGeometry x="80" y="57.5" width="60" height="30" as="geometry"/>
                </mxCell>
                <mxCell id="-E1K7-kW_m8oGpAvoMYj-4" value="" style="edgeStyle=none;html=1;entryX=0;entryY=0.5;entryDx=0;entryDy=0;" edge="1" parent="-E1K7-kW_m8oGpAvoMYj-1" source="-E1K7-kW_m8oGpAvoMYj-5" target="-E1K7-kW_m8oGpAvoMYj-12">
                    <mxGeometry relative="1" as="geometry"/>
                </mxCell>
                <mxCell id="-E1K7-kW_m8oGpAvoMYj-5" value="n = (read # of nodes)&lt;br&gt;m = (read # of pho)&lt;br&gt;vector&amp;lt;int&amp;gt; adjL[n]&lt;br&gt;bool isPho[n]&lt;br&gt;i = 0&lt;br&gt;j = 0" style="rounded=1;whiteSpace=wrap;html=1;" vertex="1" parent="-E1K7-kW_m8oGpAvoMYj-1">
                    <mxGeometry x="180" y="25" width="220" height="95" as="geometry"/>
                </mxCell>
                <mxCell id="-E1K7-kW_m8oGpAvoMYj-6" value="" style="edgeStyle=none;html=1;" edge="1" parent="-E1K7-kW_m8oGpAvoMYj-1" source="-E1K7-kW_m8oGpAvoMYj-7" target="-E1K7-kW_m8oGpAvoMYj-9">
                    <mxGeometry relative="1" as="geometry"/>
                </mxCell>
                <UserObject label="int numPho = accumulate(isPho, isPho + n, 0)&lt;br&gt;d = &lt;a href=&quot;data:page/id,jtwWwJaHlfj50oAzaOnL&quot;&gt;calculateDiameterDFS(start, parent)&lt;/a&gt;" id="-E1K7-kW_m8oGpAvoMYj-7">
                    <mxCell style="rounded=1;whiteSpace=wrap;html=1;" vertex="1" parent="-E1K7-kW_m8oGpAvoMYj-1">
                        <mxGeometry x="388.13" y="320" width="283.75" height="50" as="geometry"/>
                    </mxCell>
                </UserObject>
                <mxCell id="-E1K7-kW_m8oGpAvoMYj-8" value="" style="edgeStyle=none;html=1;" edge="1" parent="-E1K7-kW_m8oGpAvoMYj-1" source="-E1K7-kW_m8oGpAvoMYj-9" target="-E1K7-kW_m8oGpAvoMYj-10">
                    <mxGeometry relative="1" as="geometry"/>
                </mxCell>
                <mxCell id="-E1K7-kW_m8oGpAvoMYj-9" value="int shortestSpanningPath = 2*(numPho - 1) - d&lt;br&gt;print shortestSpanningPath" style="rounded=1;whiteSpace=wrap;html=1;" vertex="1" parent="-E1K7-kW_m8oGpAvoMYj-1">
                    <mxGeometry x="363.75" y="390" width="332.5" height="40" as="geometry"/>
                </mxCell>
                <mxCell id="-E1K7-kW_m8oGpAvoMYj-10" value="end" style="ellipse;whiteSpace=wrap;html=1;" vertex="1" parent="-E1K7-kW_m8oGpAvoMYj-1">
                    <mxGeometry x="500" y="460" width="60" height="30" as="geometry"/>
                </mxCell>
                <mxCell id="-E1K7-kW_m8oGpAvoMYj-11" value="" style="edgeStyle=none;html=1;" edge="1" parent="-E1K7-kW_m8oGpAvoMYj-1" source="-E1K7-kW_m8oGpAvoMYj-12" target="-E1K7-kW_m8oGpAvoMYj-17">
                    <mxGeometry relative="1" as="geometry"/>
                </mxCell>
                <mxCell id="-E1K7-kW_m8oGpAvoMYj-12" value="cur = (read cur node)&lt;br&gt;isPho[cur] = true&lt;br&gt;i++" style="rounded=1;whiteSpace=wrap;html=1;" vertex="1" parent="-E1K7-kW_m8oGpAvoMYj-1">
                    <mxGeometry x="460" y="47.5" width="140" height="50" as="geometry"/>
                </mxCell>
                <mxCell id="-E1K7-kW_m8oGpAvoMYj-13" value="" style="edgeStyle=none;html=1;" edge="1" parent="-E1K7-kW_m8oGpAvoMYj-1" source="-E1K7-kW_m8oGpAvoMYj-14" target="-E1K7-kW_m8oGpAvoMYj-20">
                    <mxGeometry relative="1" as="geometry"/>
                </mxCell>
                <mxCell id="-E1K7-kW_m8oGpAvoMYj-14" value="read n1, n2&lt;br&gt;adjL[n1].push_back(n2)&lt;br&gt;adjL[n2].push_back(n1)&lt;br&gt;j++" style="rounded=1;whiteSpace=wrap;html=1;" vertex="1" parent="-E1K7-kW_m8oGpAvoMYj-1">
                    <mxGeometry x="460" y="180" width="140" height="60" as="geometry"/>
                </mxCell>
                <mxCell id="-E1K7-kW_m8oGpAvoMYj-15" value="Y" style="edgeStyle=none;html=1;exitX=1;exitY=0.5;exitDx=0;exitDy=0;entryX=1;entryY=0.5;entryDx=0;entryDy=0;" edge="1" parent="-E1K7-kW_m8oGpAvoMYj-1" source="-E1K7-kW_m8oGpAvoMYj-17" target="-E1K7-kW_m8oGpAvoMYj-12">
                    <mxGeometry relative="1" as="geometry">
                        <Array as="points">
                            <mxPoint x="650" y="100"/>
                        </Array>
                    </mxGeometry>
                </mxCell>
                <mxCell id="-E1K7-kW_m8oGpAvoMYj-16" value="N" style="edgeStyle=none;html=1;" edge="1" parent="-E1K7-kW_m8oGpAvoMYj-1" source="-E1K7-kW_m8oGpAvoMYj-17" target="-E1K7-kW_m8oGpAvoMYj-14">
                    <mxGeometry relative="1" as="geometry"/>
                </mxCell>
                <mxCell id="-E1K7-kW_m8oGpAvoMYj-17" value="i &amp;lt; m" style="rhombus;whiteSpace=wrap;html=1;rounded=1;" vertex="1" parent="-E1K7-kW_m8oGpAvoMYj-1">
                    <mxGeometry x="495" y="120" width="70" height="30" as="geometry"/>
                </mxCell>
                <mxCell id="-E1K7-kW_m8oGpAvoMYj-18" value="Y" style="edgeStyle=none;html=1;exitX=1;exitY=0.5;exitDx=0;exitDy=0;entryX=1;entryY=0.5;entryDx=0;entryDy=0;" edge="1" parent="-E1K7-kW_m8oGpAvoMYj-1" source="-E1K7-kW_m8oGpAvoMYj-20" target="-E1K7-kW_m8oGpAvoMYj-14">
                    <mxGeometry relative="1" as="geometry">
                        <Array as="points">
                            <mxPoint x="640" y="250"/>
                        </Array>
                    </mxGeometry>
                </mxCell>
                <mxCell id="-E1K7-kW_m8oGpAvoMYj-19" value="N" style="edgeStyle=none;html=1;exitX=0.5;exitY=1;exitDx=0;exitDy=0;entryX=0.5;entryY=0;entryDx=0;entryDy=0;" edge="1" parent="-E1K7-kW_m8oGpAvoMYj-1" source="-E1K7-kW_m8oGpAvoMYj-20" target="-E1K7-kW_m8oGpAvoMYj-7">
                    <mxGeometry relative="1" as="geometry"/>
                </mxCell>
                <mxCell id="-E1K7-kW_m8oGpAvoMYj-20" value="j &amp;lt; n" style="rhombus;whiteSpace=wrap;html=1;rounded=1;" vertex="1" parent="-E1K7-kW_m8oGpAvoMYj-1">
                    <mxGeometry x="495" y="260" width="70" height="30" as="geometry"/>
                </mxCell>
            </root>
        </mxGraphModel>
    </diagram>
    <diagram id="EqHSSUU6d0-dJvdjp_lv" name="getFarthestNode">
        <mxGraphModel dx="969" dy="347" grid="1" gridSize="10" guides="1" tooltips="1" connect="1" arrows="1" fold="1" page="1" pageScale="1" pageWidth="850" pageHeight="1100" math="0" shadow="0">
            <root>
                <mxCell id="0"/>
                <mxCell id="1" parent="0"/>
                <mxCell id="dleleKwU58TDSxntv2Ju-2" value="" style="edgeStyle=none;html=1;" parent="1" source="qDm1iIENvLdSGu2U-vzX-1" target="dleleKwU58TDSxntv2Ju-1" edge="1">
                    <mxGeometry relative="1" as="geometry"/>
                </mxCell>
                <mxCell id="qDm1iIENvLdSGu2U-vzX-1" value="int farthest = 0&lt;br&gt;bool vis[]&lt;br&gt;queue&amp;lt;int&amp;gt; path" style="rounded=1;whiteSpace=wrap;html=1;" parent="1" vertex="1">
                    <mxGeometry x="20" y="25" width="130" height="60" as="geometry"/>
                </mxCell>
                <mxCell id="dleleKwU58TDSxntv2Ju-4" value="" style="edgeStyle=none;html=1;" parent="1" source="dleleKwU58TDSxntv2Ju-1" target="dleleKwU58TDSxntv2Ju-3" edge="1">
                    <mxGeometry relative="1" as="geometry"/>
                </mxCell>
                <mxCell id="dleleKwU58TDSxntv2Ju-1" value="path.push(start)&lt;br&gt;vis[start] = true" style="rounded=1;whiteSpace=wrap;html=1;" parent="1" vertex="1">
                    <mxGeometry x="190" y="25" width="130" height="60" as="geometry"/>
                </mxCell>
                <mxCell id="dleleKwU58TDSxntv2Ju-6" value="Y" style="edgeStyle=none;html=1;" parent="1" source="dleleKwU58TDSxntv2Ju-3" target="dleleKwU58TDSxntv2Ju-5" edge="1">
                    <mxGeometry relative="1" as="geometry"/>
                </mxCell>
                <mxCell id="dleleKwU58TDSxntv2Ju-8" value="N" style="edgeStyle=none;html=1;" parent="1" source="dleleKwU58TDSxntv2Ju-3" target="dleleKwU58TDSxntv2Ju-7" edge="1">
                    <mxGeometry relative="1" as="geometry"/>
                </mxCell>
                <mxCell id="dleleKwU58TDSxntv2Ju-3" value="path.empty()" style="rhombus;whiteSpace=wrap;html=1;rounded=1;" parent="1" vertex="1">
                    <mxGeometry x="350" y="25" width="115" height="50" as="geometry"/>
                </mxCell>
                <mxCell id="dleleKwU58TDSxntv2Ju-5" value="return farthest" style="rounded=1;whiteSpace=wrap;html=1;" parent="1" vertex="1">
                    <mxGeometry x="520" y="20" width="120" height="60" as="geometry"/>
                </mxCell>
                <mxCell id="xyynoCSisLVpiFjaP8rr-2" value="" style="edgeStyle=none;html=1;" parent="1" source="dleleKwU58TDSxntv2Ju-7" target="xyynoCSisLVpiFjaP8rr-1" edge="1">
                    <mxGeometry relative="1" as="geometry"/>
                </mxCell>
                <mxCell id="dleleKwU58TDSxntv2Ju-7" value="cur = path.front()&lt;br&gt;path.pop()&lt;br&gt;farthest = cur" style="rounded=1;whiteSpace=wrap;html=1;" parent="1" vertex="1">
                    <mxGeometry x="347.5" y="105" width="120" height="60" as="geometry"/>
                </mxCell>
                <mxCell id="xyynoCSisLVpiFjaP8rr-4" value="" style="edgeStyle=none;html=1;" parent="1" source="xyynoCSisLVpiFjaP8rr-1" target="xyynoCSisLVpiFjaP8rr-3" edge="1">
                    <mxGeometry relative="1" as="geometry"/>
                </mxCell>
                <mxCell id="xyynoCSisLVpiFjaP8rr-1" value="int v : adjL[start]" style="rounded=1;whiteSpace=wrap;html=1;" parent="1" vertex="1">
                    <mxGeometry x="352.5" y="185" width="110" height="30" as="geometry"/>
                </mxCell>
                <mxCell id="p5RwYWpnTQMCO0woPBzW-2" value="Y" style="edgeStyle=none;html=1;" edge="1" parent="1" source="xyynoCSisLVpiFjaP8rr-3" target="p5RwYWpnTQMCO0woPBzW-1">
                    <mxGeometry relative="1" as="geometry"/>
                </mxCell>
                <mxCell id="p5RwYWpnTQMCO0woPBzW-5" value="" style="edgeStyle=none;html=1;" edge="1" parent="1" source="xyynoCSisLVpiFjaP8rr-3" target="p5RwYWpnTQMCO0woPBzW-4">
                    <mxGeometry relative="1" as="geometry"/>
                </mxCell>
                <mxCell id="xyynoCSisLVpiFjaP8rr-3" value="vis[v]" style="rhombus;whiteSpace=wrap;html=1;rounded=1;" parent="1" vertex="1">
                    <mxGeometry x="380" y="235" width="55" height="35" as="geometry"/>
                </mxCell>
                <mxCell id="p5RwYWpnTQMCO0woPBzW-3" value="Y" style="edgeStyle=none;html=1;exitX=0.5;exitY=0;exitDx=0;exitDy=0;entryX=1;entryY=1;entryDx=0;entryDy=0;" edge="1" parent="1" source="p5RwYWpnTQMCO0woPBzW-1" target="dleleKwU58TDSxntv2Ju-3">
                    <mxGeometry relative="1" as="geometry">
                        <Array as="points"/>
                    </mxGeometry>
                </mxCell>
                <mxCell id="Yz0a--rykQTSraaPeOVB-3" value="N" style="edgeStyle=none;html=1;exitX=1;exitY=0.5;exitDx=0;exitDy=0;entryX=1;entryY=0.5;entryDx=0;entryDy=0;" edge="1" parent="1" source="p5RwYWpnTQMCO0woPBzW-1" target="Yz0a--rykQTSraaPeOVB-2">
                    <mxGeometry relative="1" as="geometry"/>
                </mxCell>
                <mxCell id="p5RwYWpnTQMCO0woPBzW-1" value="adjL[start] has more elments" style="rhombus;whiteSpace=wrap;html=1;rounded=1;" vertex="1" parent="1">
                    <mxGeometry x="500" y="222.5" width="215" height="60" as="geometry"/>
                </mxCell>
                <mxCell id="INsTX50IbRNgJrltgb8H-2" value="" style="edgeStyle=none;html=1;" edge="1" parent="1" source="p5RwYWpnTQMCO0woPBzW-4" target="INsTX50IbRNgJrltgb8H-1">
                    <mxGeometry relative="1" as="geometry"/>
                </mxCell>
                <mxCell id="p5RwYWpnTQMCO0woPBzW-4" value="path.push(v)" style="rounded=1;whiteSpace=wrap;html=1;" vertex="1" parent="1">
                    <mxGeometry x="366.25" y="285" width="82.5" height="30" as="geometry"/>
                </mxCell>
                <mxCell id="INsTX50IbRNgJrltgb8H-5" value="" style="edgeStyle=none;html=1;" edge="1" parent="1" source="INsTX50IbRNgJrltgb8H-1" target="INsTX50IbRNgJrltgb8H-3">
                    <mxGeometry relative="1" as="geometry"/>
                </mxCell>
                <mxCell id="INsTX50IbRNgJrltgb8H-1" value="vis[v] = true" style="rounded=1;whiteSpace=wrap;html=1;" vertex="1" parent="1">
                    <mxGeometry x="250" y="285" width="82.5" height="30" as="geometry"/>
                </mxCell>
                <mxCell id="oLVGMW_6S5cGE4xsErwd-3" value="Y" style="edgeStyle=none;html=1;" edge="1" parent="1" source="INsTX50IbRNgJrltgb8H-3" target="oLVGMW_6S5cGE4xsErwd-1">
                    <mxGeometry relative="1" as="geometry"/>
                </mxCell>
                <mxCell id="INsTX50IbRNgJrltgb8H-3" value="isPho[v]" style="rhombus;whiteSpace=wrap;html=1;rounded=1;" vertex="1" parent="1">
                    <mxGeometry x="251.25" y="340" width="80" height="40" as="geometry"/>
                </mxCell>
                <mxCell id="oLVGMW_6S5cGE4xsErwd-4" value="Y" style="edgeStyle=none;html=1;exitX=1;exitY=0.5;exitDx=0;exitDy=0;entryX=0.5;entryY=1;entryDx=0;entryDy=0;" edge="1" parent="1" source="oLVGMW_6S5cGE4xsErwd-1" target="p5RwYWpnTQMCO0woPBzW-1">
                    <mxGeometry relative="1" as="geometry"/>
                </mxCell>
                <mxCell id="oLVGMW_6S5cGE4xsErwd-1" value="isPho[start] = true" style="rounded=1;whiteSpace=wrap;html=1;" vertex="1" parent="1">
                    <mxGeometry x="235" y="410" width="112.5" height="30" as="geometry"/>
                </mxCell>
                <mxCell id="Yz0a--rykQTSraaPeOVB-2" value="return farthest" style="rounded=1;whiteSpace=wrap;html=1;" vertex="1" parent="1">
                    <mxGeometry x="235" y="460" width="112.5" height="30" as="geometry"/>
                </mxCell>
            </root>
        </mxGraphModel>
    </diagram>
    <diagram name="Copy of calculateDiameterDFS" id="_HZ0rhdWvD0tHkhJlSHF">
        <mxGraphModel dx="969" dy="347" grid="1" gridSize="10" guides="1" tooltips="1" connect="1" arrows="1" fold="1" page="1" pageScale="1" pageWidth="850" pageHeight="1100" math="0" shadow="0">
            <root>
                <mxCell id="d1cI2sw6AXSHJWr2aV5s-0"/>
                <mxCell id="d1cI2sw6AXSHJWr2aV5s-1" parent="d1cI2sw6AXSHJWr2aV5s-0"/>
                <mxCell id="d1cI2sw6AXSHJWr2aV5s-2" value="" style="edgeStyle=none;html=1;" parent="d1cI2sw6AXSHJWr2aV5s-1" source="d1cI2sw6AXSHJWr2aV5s-3" target="d1cI2sw6AXSHJWr2aV5s-5" edge="1">
                    <mxGeometry relative="1" as="geometry"/>
                </mxCell>
                <mxCell id="d1cI2sw6AXSHJWr2aV5s-3" value="max1 = -1&lt;br&gt;max2 = -1" style="rounded=1;whiteSpace=wrap;html=1;" parent="d1cI2sw6AXSHJWr2aV5s-1" vertex="1">
                    <mxGeometry x="20" y="70" width="70" height="40" as="geometry"/>
                </mxCell>
                <mxCell id="d1cI2sw6AXSHJWr2aV5s-4" value="" style="edgeStyle=none;html=1;" parent="d1cI2sw6AXSHJWr2aV5s-1" source="d1cI2sw6AXSHJWr2aV5s-5" target="d1cI2sw6AXSHJWr2aV5s-8" edge="1">
                    <mxGeometry relative="1" as="geometry"/>
                </mxCell>
                <mxCell id="d1cI2sw6AXSHJWr2aV5s-5" value="int v : adjL[start]" style="rounded=1;whiteSpace=wrap;html=1;" parent="d1cI2sw6AXSHJWr2aV5s-1" vertex="1">
                    <mxGeometry x="120" y="70" width="240" height="40" as="geometry"/>
                </mxCell>
                <mxCell id="d1cI2sw6AXSHJWr2aV5s-6" value="Y" style="edgeStyle=none;html=1;" parent="d1cI2sw6AXSHJWr2aV5s-1" source="d1cI2sw6AXSHJWr2aV5s-8" target="d1cI2sw6AXSHJWr2aV5s-11" edge="1">
                    <mxGeometry relative="1" as="geometry"/>
                </mxCell>
                <mxCell id="d1cI2sw6AXSHJWr2aV5s-7" value="N" style="edgeStyle=none;html=1;exitX=0.5;exitY=1;exitDx=0;exitDy=0;entryX=0.5;entryY=0;entryDx=0;entryDy=0;" parent="d1cI2sw6AXSHJWr2aV5s-1" source="d1cI2sw6AXSHJWr2aV5s-8" target="d1cI2sw6AXSHJWr2aV5s-13" edge="1">
                    <mxGeometry relative="1" as="geometry"/>
                </mxCell>
                <mxCell id="d1cI2sw6AXSHJWr2aV5s-8" value="v == par" style="rhombus;whiteSpace=wrap;html=1;" parent="d1cI2sw6AXSHJWr2aV5s-1" vertex="1">
                    <mxGeometry x="395" y="70" width="75" height="40" as="geometry"/>
                </mxCell>
                <mxCell id="d1cI2sw6AXSHJWr2aV5s-9" value="Y" style="edgeStyle=none;html=1;exitX=0.5;exitY=0;exitDx=0;exitDy=0;entryX=0.5;entryY=0;entryDx=0;entryDy=0;" parent="d1cI2sw6AXSHJWr2aV5s-1" source="d1cI2sw6AXSHJWr2aV5s-11" target="d1cI2sw6AXSHJWr2aV5s-5" edge="1">
                    <mxGeometry relative="1" as="geometry">
                        <Array as="points">
                            <mxPoint x="470" y="20"/>
                        </Array>
                    </mxGeometry>
                </mxCell>
                <mxCell id="d1cI2sw6AXSHJWr2aV5s-10" value="N" style="edgeStyle=none;html=1;exitX=1;exitY=0.5;exitDx=0;exitDy=0;entryX=1;entryY=0.5;entryDx=0;entryDy=0;" parent="d1cI2sw6AXSHJWr2aV5s-1" source="d1cI2sw6AXSHJWr2aV5s-11" target="d1cI2sw6AXSHJWr2aV5s-29" edge="1">
                    <mxGeometry relative="1" as="geometry">
                        <Array as="points">
                            <mxPoint x="830" y="290"/>
                        </Array>
                    </mxGeometry>
                </mxCell>
                <mxCell id="d1cI2sw6AXSHJWr2aV5s-11" value="adjL[start] has more elements" style="rhombus;whiteSpace=wrap;html=1;" parent="d1cI2sw6AXSHJWr2aV5s-1" vertex="1">
                    <mxGeometry x="510" y="65" width="200" height="50" as="geometry"/>
                </mxCell>
                <mxCell id="d1cI2sw6AXSHJWr2aV5s-12" value="" style="edgeStyle=none;html=1;entryX=0;entryY=0.5;entryDx=0;entryDy=0;" parent="d1cI2sw6AXSHJWr2aV5s-1" source="d1cI2sw6AXSHJWr2aV5s-13" target="d1cI2sw6AXSHJWr2aV5s-16" edge="1">
                    <mxGeometry relative="1" as="geometry">
                        <mxPoint x="155" y="340" as="targetPoint"/>
                    </mxGeometry>
                </mxCell>
                <mxCell id="d1cI2sw6AXSHJWr2aV5s-13" value="int tempDiam = calculateDiameterDfs(v, start)" style="rounded=1;whiteSpace=wrap;html=1;" parent="d1cI2sw6AXSHJWr2aV5s-1" vertex="1">
                    <mxGeometry x="20" y="160" width="262.5" height="30" as="geometry"/>
                </mxCell>
                <mxCell id="d1cI2sw6AXSHJWr2aV5s-14" value="Y" style="edgeStyle=none;html=1;" parent="d1cI2sw6AXSHJWr2aV5s-1" source="d1cI2sw6AXSHJWr2aV5s-16" target="d1cI2sw6AXSHJWr2aV5s-18" edge="1">
                    <mxGeometry relative="1" as="geometry"/>
                </mxCell>
                <mxCell id="d1cI2sw6AXSHJWr2aV5s-15" value="N" style="edgeStyle=none;html=1;exitX=1;exitY=0.5;exitDx=0;exitDy=0;entryX=0.5;entryY=0;entryDx=0;entryDy=0;" parent="d1cI2sw6AXSHJWr2aV5s-1" source="d1cI2sw6AXSHJWr2aV5s-16" target="d1cI2sw6AXSHJWr2aV5s-21" edge="1">
                    <mxGeometry relative="1" as="geometry">
                        <Array as="points"/>
                    </mxGeometry>
                </mxCell>
                <mxCell id="d1cI2sw6AXSHJWr2aV5s-16" value="tempDiam &amp;gt; max2" style="rhombus;whiteSpace=wrap;html=1;" parent="d1cI2sw6AXSHJWr2aV5s-1" vertex="1">
                    <mxGeometry x="310" y="155" width="140" height="40" as="geometry"/>
                </mxCell>
                <mxCell id="d1cI2sw6AXSHJWr2aV5s-17" value="" style="edgeStyle=none;html=1;" parent="d1cI2sw6AXSHJWr2aV5s-1" source="d1cI2sw6AXSHJWr2aV5s-18" target="d1cI2sw6AXSHJWr2aV5s-21" edge="1">
                    <mxGeometry relative="1" as="geometry"/>
                </mxCell>
                <mxCell id="d1cI2sw6AXSHJWr2aV5s-18" value="max2 = tempDiam" style="rounded=1;whiteSpace=wrap;html=1;" parent="d1cI2sw6AXSHJWr2aV5s-1" vertex="1">
                    <mxGeometry x="321.88" y="230" width="116.25" height="30" as="geometry"/>
                </mxCell>
                <mxCell id="d1cI2sw6AXSHJWr2aV5s-19" value="Y" style="edgeStyle=none;html=1;" parent="d1cI2sw6AXSHJWr2aV5s-1" source="d1cI2sw6AXSHJWr2aV5s-21" target="d1cI2sw6AXSHJWr2aV5s-23" edge="1">
                    <mxGeometry relative="1" as="geometry"/>
                </mxCell>
                <mxCell id="d1cI2sw6AXSHJWr2aV5s-20" value="N" style="edgeStyle=none;html=1;exitX=1;exitY=0.5;exitDx=0;exitDy=0;entryX=0.5;entryY=0;entryDx=0;entryDy=0;" parent="d1cI2sw6AXSHJWr2aV5s-1" source="d1cI2sw6AXSHJWr2aV5s-21" target="d1cI2sw6AXSHJWr2aV5s-26" edge="1">
                    <mxGeometry relative="1" as="geometry">
                        <mxPoint x="608.1199999999999" y="385" as="targetPoint"/>
                        <Array as="points"/>
                    </mxGeometry>
                </mxCell>
                <mxCell id="d1cI2sw6AXSHJWr2aV5s-21" value="max2 &amp;gt; max1" style="rhombus;whiteSpace=wrap;html=1;" parent="d1cI2sw6AXSHJWr2aV5s-1" vertex="1">
                    <mxGeometry x="480" y="225" width="140" height="40" as="geometry"/>
                </mxCell>
                <mxCell id="d1cI2sw6AXSHJWr2aV5s-22" value="" style="edgeStyle=none;html=1;entryX=0;entryY=0.5;entryDx=0;entryDy=0;" parent="d1cI2sw6AXSHJWr2aV5s-1" source="d1cI2sw6AXSHJWr2aV5s-23" target="d1cI2sw6AXSHJWr2aV5s-26" edge="1">
                    <mxGeometry relative="1" as="geometry">
                        <mxPoint x="549.9949999999999" y="370" as="targetPoint"/>
                    </mxGeometry>
                </mxCell>
                <mxCell id="d1cI2sw6AXSHJWr2aV5s-23" value="swap(max2, max1)" style="rounded=1;whiteSpace=wrap;html=1;" parent="d1cI2sw6AXSHJWr2aV5s-1" vertex="1">
                    <mxGeometry x="491.87" y="300" width="116.25" height="30" as="geometry"/>
                </mxCell>
                <mxCell id="d1cI2sw6AXSHJWr2aV5s-24" value="Y" style="edgeStyle=none;html=1;" parent="d1cI2sw6AXSHJWr2aV5s-1" source="d1cI2sw6AXSHJWr2aV5s-26" target="d1cI2sw6AXSHJWr2aV5s-28" edge="1">
                    <mxGeometry relative="1" as="geometry"/>
                </mxCell>
                <mxCell id="d1cI2sw6AXSHJWr2aV5s-25" value="N" style="edgeStyle=none;html=1;exitX=1;exitY=0.5;exitDx=0;exitDy=0;entryX=0.5;entryY=1;entryDx=0;entryDy=0;" parent="d1cI2sw6AXSHJWr2aV5s-1" source="d1cI2sw6AXSHJWr2aV5s-26" target="d1cI2sw6AXSHJWr2aV5s-11" edge="1">
                    <mxGeometry relative="1" as="geometry">
                        <Array as="points">
                            <mxPoint x="660" y="230"/>
                        </Array>
                    </mxGeometry>
                </mxCell>
                <mxCell id="d1cI2sw6AXSHJWr2aV5s-26" value="isPho[v]" style="rhombus;whiteSpace=wrap;html=1;" parent="d1cI2sw6AXSHJWr2aV5s-1" vertex="1">
                    <mxGeometry x="640" y="295" width="140" height="40" as="geometry"/>
                </mxCell>
                <mxCell id="d1cI2sw6AXSHJWr2aV5s-27" style="edgeStyle=none;html=1;exitX=1;exitY=0.5;exitDx=0;exitDy=0;entryX=0.5;entryY=1;entryDx=0;entryDy=0;" parent="d1cI2sw6AXSHJWr2aV5s-1" source="d1cI2sw6AXSHJWr2aV5s-28" target="d1cI2sw6AXSHJWr2aV5s-11" edge="1">
                    <mxGeometry relative="1" as="geometry">
                        <Array as="points">
                            <mxPoint x="790" y="300"/>
                        </Array>
                    </mxGeometry>
                </mxCell>
                <mxCell id="d1cI2sw6AXSHJWr2aV5s-28" value="isPho[par] = true" style="rounded=1;whiteSpace=wrap;html=1;" parent="d1cI2sw6AXSHJWr2aV5s-1" vertex="1">
                    <mxGeometry x="651.88" y="370" width="116.25" height="30" as="geometry"/>
                </mxCell>
                <mxCell id="d1cI2sw6AXSHJWr2aV5s-29" value="" style="rounded=1;whiteSpace=wrap;html=1;" parent="d1cI2sw6AXSHJWr2aV5s-1" vertex="1">
                    <mxGeometry x="651.88" y="430" width="116.25" height="30" as="geometry"/>
                </mxCell>
            </root>
        </mxGraphModel>
    </diagram>
    <diagram id="jtwWwJaHlfj50oAzaOnL" name="calculateDiameter">
        <mxGraphModel dx="969" dy="347" grid="1" gridSize="10" guides="1" tooltips="1" connect="1" arrows="1" fold="1" page="1" pageScale="1" pageWidth="850" pageHeight="1100" math="0" shadow="0">
            <root>
                <mxCell id="0"/>
                <mxCell id="1" parent="0"/>
                <mxCell id="_z_blW0uepA_B_WanZRF-3" value="" style="edgeStyle=none;html=1;" parent="1" source="C33J_M5XqmryMFpZPdEn-1" target="_z_blW0uepA_B_WanZRF-2" edge="1">
                    <mxGeometry relative="1" as="geometry"/>
                </mxCell>
                <mxCell id="C33J_M5XqmryMFpZPdEn-1" value="start = 0" style="rounded=1;whiteSpace=wrap;html=1;" parent="1" vertex="1">
                    <mxGeometry x="175" y="80" width="90" height="30" as="geometry"/>
                </mxCell>
                <mxCell id="_z_blW0uepA_B_WanZRF-5" value="" style="edgeStyle=none;html=1;entryX=0.5;entryY=0;entryDx=0;entryDy=0;" parent="1" source="_z_blW0uepA_B_WanZRF-2" target="IpgYRLEZi4KZMkeSjxkI-1" edge="1">
                    <mxGeometry relative="1" as="geometry"/>
                </mxCell>
                <mxCell id="_z_blW0uepA_B_WanZRF-2" value="int farthest = &lt;a href=&quot;data:page/id,EqHSSUU6d0-dJvdjp_lv&quot;&gt;getFarthestNode(start)&lt;/a&gt;" style="rounded=1;whiteSpace=wrap;html=1;" parent="1" vertex="1">
                    <mxGeometry x="80" y="140" width="280" height="30" as="geometry"/>
                </mxCell>
                <mxCell id="qAGNaI8bkBU7Yw3Nce1m-2" value="" style="edgeStyle=none;html=1;" parent="1" source="_z_blW0uepA_B_WanZRF-4" target="qAGNaI8bkBU7Yw3Nce1m-1" edge="1">
                    <mxGeometry relative="1" as="geometry"/>
                </mxCell>
                <mxCell id="_z_blW0uepA_B_WanZRF-4" value="diameter = &lt;a href=&quot;data:page/id,0XXCjUOzOjpR15QE5PMu&quot;&gt;findLongestPath(farthest)&lt;/a&gt;&lt;br&gt;return diameter" style="rounded=1;whiteSpace=wrap;html=1;" parent="1" vertex="1">
                    <mxGeometry x="80" y="260" width="280" height="40" as="geometry"/>
                </mxCell>
                <UserObject label="main" link="data:page/id,6rzt2TXuob4xhtXyaZt5" id="qAGNaI8bkBU7Yw3Nce1m-1">
                    <mxCell style="fontColor=#0000EE;fontStyle=4;rounded=1;overflow=hidden;spacing=10;" parent="1" vertex="1">
                        <mxGeometry x="185" y="330" width="70" height="40" as="geometry"/>
                    </mxCell>
                </UserObject>
                <mxCell id="IpgYRLEZi4KZMkeSjxkI-3" value="" style="edgeStyle=none;html=1;entryX=0.5;entryY=0;entryDx=0;entryDy=0;" edge="1" parent="1" source="IpgYRLEZi4KZMkeSjxkI-1" target="_z_blW0uepA_B_WanZRF-4">
                    <mxGeometry relative="1" as="geometry">
                        <mxPoint x="220" y="260" as="targetPoint"/>
                    </mxGeometry>
                </mxCell>
                <mxCell id="IpgYRLEZi4KZMkeSjxkI-1" value="int farthest = &lt;a href=&quot;data:page/id,EqHSSUU6d0-dJvdjp_lv&quot;&gt;getFarthestNode(start)&lt;/a&gt;" style="rounded=1;whiteSpace=wrap;html=1;" vertex="1" parent="1">
                    <mxGeometry x="80" y="200" width="280" height="30" as="geometry"/>
                </mxCell>
            </root>
        </mxGraphModel>
    </diagram>
    <diagram name="Copy of calculate min spanning path length" id="1EV088JOgYxRK5LGN9OE">
        <mxGraphModel dx="1242" dy="568" grid="1" gridSize="10" guides="1" tooltips="1" connect="1" arrows="1" fold="1" page="1" pageScale="1" pageWidth="850" pageHeight="1100" math="0" shadow="0">
            <root>
                <mxCell id="cmgbwvuzfVoJ4pH_jBFq-0"/>
                <mxCell id="cmgbwvuzfVoJ4pH_jBFq-1" parent="cmgbwvuzfVoJ4pH_jBFq-0"/>
                <mxCell id="cmgbwvuzfVoJ4pH_jBFq-2" value="" style="edgeStyle=none;html=1;" parent="cmgbwvuzfVoJ4pH_jBFq-1" source="cmgbwvuzfVoJ4pH_jBFq-3" target="cmgbwvuzfVoJ4pH_jBFq-5" edge="1">
                    <mxGeometry relative="1" as="geometry"/>
                </mxCell>
                <mxCell id="cmgbwvuzfVoJ4pH_jBFq-3" value="int numNodes = accumulate(isPho, isPho + n, 0)" style="rounded=1;whiteSpace=wrap;html=1;" parent="cmgbwvuzfVoJ4pH_jBFq-1" vertex="1">
                    <mxGeometry x="80" y="80" width="280" height="30" as="geometry"/>
                </mxCell>
                <mxCell id="cmgbwvuzfVoJ4pH_jBFq-4" value="" style="edgeStyle=none;html=1;" parent="cmgbwvuzfVoJ4pH_jBFq-1" source="cmgbwvuzfVoJ4pH_jBFq-5" target="cmgbwvuzfVoJ4pH_jBFq-7" edge="1">
                    <mxGeometry relative="1" as="geometry"/>
                </mxCell>
                <mxCell id="cmgbwvuzfVoJ4pH_jBFq-5" value="int numEdges = numNodes - 1" style="rounded=1;whiteSpace=wrap;html=1;" parent="cmgbwvuzfVoJ4pH_jBFq-1" vertex="1">
                    <mxGeometry x="80" y="140" width="280" height="30" as="geometry"/>
                </mxCell>
                <mxCell id="cmgbwvuzfVoJ4pH_jBFq-6" value="" style="edgeStyle=none;html=1;" parent="cmgbwvuzfVoJ4pH_jBFq-1" source="cmgbwvuzfVoJ4pH_jBFq-7" target="cmgbwvuzfVoJ4pH_jBFq-8" edge="1">
                    <mxGeometry relative="1" as="geometry"/>
                </mxCell>
                <mxCell id="cmgbwvuzfVoJ4pH_jBFq-7" value="minLen = 2*(numEdges-1) - d" style="rounded=1;whiteSpace=wrap;html=1;" parent="cmgbwvuzfVoJ4pH_jBFq-1" vertex="1">
                    <mxGeometry x="80" y="200" width="280" height="30" as="geometry"/>
                </mxCell>
                <UserObject label="main" link="data:page/id,6rzt2TXuob4xhtXyaZt5" id="cmgbwvuzfVoJ4pH_jBFq-8">
                    <mxCell style="fontColor=#0000EE;fontStyle=4;rounded=1;overflow=hidden;spacing=10;" parent="cmgbwvuzfVoJ4pH_jBFq-1" vertex="1">
                        <mxGeometry x="185" y="260" width="70" height="40" as="geometry"/>
                    </mxCell>
                </UserObject>
            </root>
        </mxGraphModel>
    </diagram>
    <diagram id="0XXCjUOzOjpR15QE5PMu" name="findLongestPath">
        <mxGraphModel dx="969" dy="347" grid="1" gridSize="10" guides="1" tooltips="1" connect="1" arrows="1" fold="1" page="1" pageScale="1" pageWidth="850" pageHeight="1100" math="0" shadow="0">
            <root>
                <mxCell id="0"/>
                <mxCell id="1" parent="0"/>
                <mxCell id="e7N72NVtYM7fOJJ5Y_UN-2" value="" style="edgeStyle=none;html=1;" edge="1" parent="1" source="kbp5ar_Pij13EGau_WT6-1" target="e7N72NVtYM7fOJJ5Y_UN-1">
                    <mxGeometry relative="1" as="geometry"/>
                </mxCell>
                <mxCell id="kbp5ar_Pij13EGau_WT6-1" value="bool vis[]&lt;br&gt;int dist[]&lt;br&gt;queue&amp;lt;int&amp;gt; path" style="rounded=1;whiteSpace=wrap;html=1;" vertex="1" parent="1">
                    <mxGeometry x="80" y="40" width="110" height="60" as="geometry"/>
                </mxCell>
                <mxCell id="iYl9HXRBrnJarBFTEoW_-2" value="" style="edgeStyle=none;html=1;" edge="1" parent="1" source="e7N72NVtYM7fOJJ5Y_UN-1" target="iYl9HXRBrnJarBFTEoW_-1">
                    <mxGeometry relative="1" as="geometry"/>
                </mxCell>
                <mxCell id="e7N72NVtYM7fOJJ5Y_UN-1" value="path.push(start)&lt;br&gt;vis[start] = true" style="rounded=1;whiteSpace=wrap;html=1;" vertex="1" parent="1">
                    <mxGeometry x="220" y="50" width="110" height="40" as="geometry"/>
                </mxCell>
                <mxCell id="0SQ5wNb0x5dXX4ou-zsD-2" value="N" style="edgeStyle=none;html=1;" edge="1" parent="1" source="iYl9HXRBrnJarBFTEoW_-1" target="0SQ5wNb0x5dXX4ou-zsD-1">
                    <mxGeometry relative="1" as="geometry"/>
                </mxCell>
                <mxCell id="0SQ5wNb0x5dXX4ou-zsD-4" value="Y" style="edgeStyle=none;html=1;" edge="1" parent="1" source="iYl9HXRBrnJarBFTEoW_-1" target="0SQ5wNb0x5dXX4ou-zsD-3">
                    <mxGeometry relative="1" as="geometry"/>
                </mxCell>
                <mxCell id="iYl9HXRBrnJarBFTEoW_-1" value="path.empty()" style="rhombus;whiteSpace=wrap;html=1;rounded=1;" vertex="1" parent="1">
                    <mxGeometry x="360" y="45" width="115" height="50" as="geometry"/>
                </mxCell>
                <mxCell id="0SQ5wNb0x5dXX4ou-zsD-6" value="" style="edgeStyle=none;html=1;entryX=0.5;entryY=0;entryDx=0;entryDy=0;" edge="1" parent="1" source="0SQ5wNb0x5dXX4ou-zsD-1" target="rfSwM4GRhCr74wAticV5-1">
                    <mxGeometry relative="1" as="geometry">
                        <mxPoint x="417.5" y="200" as="targetPoint"/>
                    </mxGeometry>
                </mxCell>
                <mxCell id="0SQ5wNb0x5dXX4ou-zsD-1" value="cur = path.front()&lt;br&gt;path.pop()" style="rounded=1;whiteSpace=wrap;html=1;" vertex="1" parent="1">
                    <mxGeometry x="366.25" y="130" width="102.5" height="35" as="geometry"/>
                </mxCell>
                <mxCell id="0SQ5wNb0x5dXX4ou-zsD-3" value="int farthest = (max element in dist)&lt;br&gt;return farthest" style="rounded=1;whiteSpace=wrap;html=1;" vertex="1" parent="1">
                    <mxGeometry x="560" y="52.5" width="200" height="35" as="geometry"/>
                </mxCell>
                <mxCell id="rfSwM4GRhCr74wAticV5-3" value="" style="edgeStyle=none;html=1;entryX=0.5;entryY=0;entryDx=0;entryDy=0;" edge="1" parent="1" source="rfSwM4GRhCr74wAticV5-1" target="rfSwM4GRhCr74wAticV5-5">
                    <mxGeometry relative="1" as="geometry">
                        <mxPoint x="417.5" y="310" as="targetPoint"/>
                    </mxGeometry>
                </mxCell>
                <mxCell id="rfSwM4GRhCr74wAticV5-1" value="int v : adjL[start]" style="rounded=1;whiteSpace=wrap;html=1;" vertex="1" parent="1">
                    <mxGeometry x="362.5" y="190" width="110" height="30" as="geometry"/>
                </mxCell>
                <mxCell id="rfSwM4GRhCr74wAticV5-6" value="Y" style="edgeStyle=none;html=1;exitX=1;exitY=0.5;exitDx=0;exitDy=0;entryX=1;entryY=1;entryDx=0;entryDy=0;" edge="1" parent="1" source="rfSwM4GRhCr74wAticV5-5" target="iYl9HXRBrnJarBFTEoW_-1">
                    <mxGeometry relative="1" as="geometry">
                        <Array as="points">
                            <mxPoint x="510" y="180"/>
                        </Array>
                    </mxGeometry>
                </mxCell>
                <mxCell id="rfSwM4GRhCr74wAticV5-9" value="N" style="edgeStyle=none;html=1;" edge="1" parent="1" source="rfSwM4GRhCr74wAticV5-5" target="rfSwM4GRhCr74wAticV5-7">
                    <mxGeometry relative="1" as="geometry"/>
                </mxCell>
                <mxCell id="rfSwM4GRhCr74wAticV5-5" value="vis[v]" style="rhombus;whiteSpace=wrap;html=1;rounded=1;" vertex="1" parent="1">
                    <mxGeometry x="383.75" y="250" width="67.5" height="30" as="geometry"/>
                </mxCell>
                <mxCell id="4xOCqyhse-XB0BmBybKK-2" value="" style="edgeStyle=none;html=1;" edge="1" parent="1" source="rfSwM4GRhCr74wAticV5-7" target="4xOCqyhse-XB0BmBybKK-1">
                    <mxGeometry relative="1" as="geometry"/>
                </mxCell>
                <mxCell id="rfSwM4GRhCr74wAticV5-7" value="path.push(v)&lt;br&gt;vis[v] = true&lt;br&gt;dist[v] = dist[cur] + 1" style="rounded=1;whiteSpace=wrap;html=1;" vertex="1" parent="1">
                    <mxGeometry x="353.75" y="310" width="127.5" height="50" as="geometry"/>
                </mxCell>
                <mxCell id="4xOCqyhse-XB0BmBybKK-3" value="N" style="edgeStyle=none;html=1;exitX=1;exitY=0.5;exitDx=0;exitDy=0;entryX=0.5;entryY=1;entryDx=0;entryDy=0;" edge="1" parent="1" source="4xOCqyhse-XB0BmBybKK-1" target="0SQ5wNb0x5dXX4ou-zsD-3">
                    <mxGeometry relative="1" as="geometry"/>
                </mxCell>
                <mxCell id="4xOCqyhse-XB0BmBybKK-4" value="Y" style="edgeStyle=none;html=1;exitX=0;exitY=0.5;exitDx=0;exitDy=0;entryX=0;entryY=0.5;entryDx=0;entryDy=0;" edge="1" parent="1" source="4xOCqyhse-XB0BmBybKK-1" target="rfSwM4GRhCr74wAticV5-1">
                    <mxGeometry relative="1" as="geometry"/>
                </mxCell>
                <mxCell id="4xOCqyhse-XB0BmBybKK-1" value="adjL[cur] has more elments" style="rhombus;whiteSpace=wrap;html=1;rounded=1;" vertex="1" parent="1">
                    <mxGeometry x="310" y="390" width="215" height="60" as="geometry"/>
                </mxCell>
            </root>
        </mxGraphModel>
    </diagram>
</mxfile>